<svg width="64" height="64" viewBox="0 0 64 64" fill="none" xmlns="http://www.w3.org/2000/svg">
<rect width="64" height="64" rx="13" fill="url(#paint0_linear_5_498)"/>
<path d="M21.52 43.384C19.9627 43.384 18.6613 43.1387 17.616 42.648C16.5707 42.136 15.8027 41.4533 15.312 40.6C14.8213 39.7253 14.6293 38.7653 14.736 37.72H19.472C19.472 38.1467 19.568 38.52 19.76 38.84C19.9733 39.1387 20.272 39.3733 20.656 39.544C21.04 39.7147 21.5093 39.8 22.064 39.8C22.5973 39.8 23.0453 39.7253 23.408 39.576C23.7707 39.4267 24.048 39.224 24.24 38.968C24.432 38.712 24.5387 38.4347 24.56 38.136C24.5813 37.7947 24.4853 37.528 24.272 37.336C24.0587 37.1227 23.7493 36.952 23.344 36.824C22.96 36.696 22.5013 36.5787 21.968 36.472C21.2213 36.3013 20.496 36.0987 19.792 35.864C19.088 35.608 18.4693 35.3093 17.936 34.968C17.4027 34.6053 16.9867 34.1787 16.688 33.688C16.3893 33.176 16.2613 32.568 16.304 31.864C16.3467 30.8187 16.688 29.9013 17.328 29.112C17.9893 28.3013 18.8747 27.6613 19.984 27.192C21.1147 26.7227 22.3947 26.488 23.824 26.488C25.8507 26.488 27.408 26.9467 28.496 27.864C29.6053 28.7813 30.1387 29.9973 30.096 31.512H25.552C25.488 31.064 25.2533 30.7227 24.848 30.488C24.4427 30.232 23.9093 30.104 23.248 30.104C22.5867 30.104 22.0427 30.232 21.616 30.488C21.2107 30.744 20.9973 31.0747 20.976 31.48C20.976 31.736 21.0827 31.9707 21.296 32.184C21.5093 32.376 21.8293 32.5467 22.256 32.696C22.704 32.824 23.2373 32.952 23.856 33.08C24.752 33.272 25.552 33.496 26.256 33.752C26.96 33.9867 27.5573 34.2747 28.048 34.616C28.5387 34.936 28.9013 35.3413 29.136 35.832C29.3707 36.3227 29.4667 36.92 29.424 37.624C29.3813 38.7973 29.008 39.8213 28.304 40.696C27.6 41.5493 26.6613 42.2107 25.488 42.68C24.3147 43.1493 22.992 43.384 21.52 43.384ZM36.7288 43.384C35.4274 43.384 34.2968 43.064 33.3368 42.424C32.3981 41.7627 31.6834 40.8773 31.1927 39.768C30.7234 38.6587 30.5314 37.3893 30.6168 35.96C30.6594 34.616 30.9261 33.368 31.4167 32.216C31.9074 31.064 32.5581 30.0613 33.3688 29.208C34.1794 28.3547 35.1181 27.6933 36.1848 27.224C37.2514 26.7333 38.4034 26.488 39.6408 26.488C40.8568 26.488 41.8488 26.712 42.6168 27.16C43.3848 27.5867 43.9608 28.1307 44.3448 28.792L45.8808 19.96H50.6808L46.6168 43H42.3608L42.1688 40.92C41.8061 41.368 41.3581 41.784 40.8248 42.168C40.3128 42.5307 39.7154 42.8187 39.0328 43.032C38.3714 43.2667 37.6034 43.384 36.7288 43.384ZM38.7768 39.192C39.6301 39.192 40.3981 38.9787 41.0808 38.552C41.7848 38.104 42.3501 37.5173 42.7768 36.792C43.2034 36.0453 43.4381 35.224 43.4808 34.328C43.5234 33.6027 43.4168 32.9627 43.1608 32.408C42.9048 31.8533 42.5208 31.4267 42.0088 31.128C41.4968 30.8293 40.8888 30.68 40.1848 30.68C39.3314 30.68 38.5634 30.8933 37.8808 31.32C37.1981 31.7253 36.6434 32.2907 36.2168 33.016C35.8114 33.72 35.5874 34.5307 35.5448 35.448C35.5234 36.152 35.6301 36.792 35.8648 37.368C36.1208 37.944 36.4941 38.392 36.9848 38.712C37.4754 39.032 38.0728 39.192 38.7768 39.192Z" fill="white"/>
<defs>
<linearGradient id="paint0_linear_5_498" x1="3" y1="7.5" x2="71.5" y2="70.5" gradientUnits="userSpaceOnUse">
<stop stop-color="#201FD1"/>
<stop offset="1" stop-color="#10106B"/>
</linearGradient>
</defs>
</svg>
